# xmcd CD database file
#
# Track frame offsets:
#	150
#	18426
#	36726
#	56808
#	71216
#	85675
#	100188
#	114140
#	122371
#	134824
#
# Disc length: 2033 seconds
#
# Revision: 0
# Processed by: cddbd v1.5.2PL0 Copyright (c) Steve Scherf et al.
# Submitted via: CDex 1.70beta2
#
DISCID=8b07ef0a
DTITLE=Grüv 'N Brass - On Tour For The Weekend
DYEAR=2010
DGENRE=Jazz
TTITLE0=On Tour For The Weekend
TTITLE1=En dessous de zero
TTITLE2=Echo du Belgistan
TTITLE3=Lokatphoon
TTITLE4=Balle donnee
TTITLE5=Allonge, allange
TTITLE6=Brassmobile
TTITLE7=Upside Down
TTITLE8=Moyen d'transport
TTITLE9=Nubenche
EXTD=YEAR: 2010
EXTT0=
EXTT1=
EXTT2=
EXTT3=
EXTT4=
EXTT5=
EXTT6=
EXTT7=
EXTT8=
EXTT9=
PLAYORDER=
